<svg xmlns="http://www.w3.org/2000/svg" width="37" height="37" viewBox="0 0 37 37">
  <g fill="none">
    <circle cx="18.48" cy="18.5" r="18.167" fill="#1F3951"/>
    <path fill="#FFFFFF" d="M27.5,13.75 C27.5,14.279 27.336,14.784 27.008,15.267 C26.68,15.75 26.271,16.162 25.782,16.502 C23.264,18.25 21.697,19.338 21.081,19.767 C21.014,19.814 20.872,19.916 20.654,20.074 C20.436,20.231 20.255,20.358 20.112,20.456 C19.968,20.553 19.794,20.662 19.59,20.782 C19.386,20.902 19.193,20.993 19.012,21.053 C18.831,21.113 18.664,21.143 18.51,21.143 L18.5,21.143 L18.49,21.143 C18.336,21.143 18.169,21.113 17.988,21.053 C17.807,20.992 17.614,20.902 17.41,20.782 C17.206,20.662 17.032,20.553 16.888,20.456 C16.744,20.358 16.563,20.231 16.346,20.074 C16.129,19.917 15.986,19.814 15.919,19.767 C15.31,19.338 14.433,18.728 13.287,17.934 C12.142,17.14 11.455,16.663 11.228,16.502 C10.813,16.221 10.421,15.834 10.053,15.342 C9.685,14.85 9.501,14.393 9.501,13.971 C9.501,13.449 9.64,13.014 9.918,12.665 C10.196,12.317 10.592,12.143 11.108,12.143 L25.894,12.143 C26.329,12.143 26.706,12.3 27.024,12.616 C27.341,12.93 27.5,13.308 27.5,13.75 Z M27.5,16.703 L27.5,24.679 C27.5,25.12 27.343,25.499 27.028,25.814 C26.713,26.129 26.335,26.287 25.893,26.287 L11.107,26.287 C10.665,26.287 10.287,26.129 9.972,25.814 C9.657,25.5 9.5,25.121 9.5,24.679 L9.5,16.703 C9.794,17.031 10.133,17.322 10.515,17.577 C12.939,19.224 14.603,20.38 15.507,21.042 C15.888,21.323 16.198,21.543 16.436,21.7 C16.673,21.857 16.99,22.018 17.385,22.182 C17.78,22.346 18.148,22.428 18.489,22.428 L18.499,22.428 L18.509,22.428 C18.85,22.428 19.218,22.346 19.613,22.182 C20.008,22.018 20.324,21.857 20.562,21.7 C20.8,21.543 21.11,21.323 21.491,21.042 C22.63,20.219 24.297,19.063 26.493,17.577 C26.877,17.315 27.212,17.024 27.5,16.703 Z"/>
  </g>
</svg>
