<svg xmlns="http://www.w3.org/2000/svg" width="38" height="38" viewBox="0 0 38 38">
  <g fill="none">
    <circle cx="18.917" cy="19.083" r="18.167" fill="#1F3951"/>
    <path fill="#FFFFFF" d="M22.406,10.532 L22.406,13.183 L20.83,13.183 C20.254,13.183 19.865,13.303 19.664,13.544 C19.464,13.785 19.363,14.147 19.363,14.629 L19.363,16.527 L22.306,16.527 L21.913,19.501 L19.362,19.501 L19.362,27.125 L16.288,27.125 L16.288,19.501 L13.727,19.501 L13.727,16.527 L16.288,16.527 L16.288,14.338 C16.288,13.092 16.637,12.126 17.333,11.44 C18.03,10.754 18.957,10.411 20.116,10.411 C21.102,10.411 21.864,10.451 22.406,10.532 Z"/>
  </g>
</svg>
