<svg xmlns="http://www.w3.org/2000/svg" width="346" height="80" viewBox="0 0 346 80">
  <g fill="#203851">
    <polygon points="2.316 1.529 5.889 1.529 5.889 36.004 23.337 36.004 44.464 1.529 48.563 1.529 26.596 37.265 53.085 77.205 48.985 77.205 23.443 39.154 5.89 39.154 5.89 77.205 2.317 77.205 2.317 1.529"/>
    <path d="M55.551,78.529 L48.278,78.529 L22.738,40.48 L7.213,40.48 L7.213,78.529 L0.993,78.529 L0.993,0.204 L7.213,0.204 L7.213,34.68 L22.596,34.68 L43.723,0.204 L50.93,0.204 L28.167,37.238 L55.551,78.529 Z M49.689,75.881 L50.617,75.881 L25.026,37.292 L46.195,2.852 L45.205,2.852 L24.079,37.327 L4.567,37.327 L4.567,2.852 L3.641,2.852 L3.641,75.881 L4.567,75.881 L4.567,37.832 L24.15,37.832 L49.689,75.881 Z"/>
    <g transform="translate(57 19)">
      <path d="M44.324,51.899 C38.437,57.68 32.236,59.467 25.508,59.467 C11.319,59.467 1.754,50.847 1.754,30.876 C1.754,13.428 10.897,1.973 25.193,1.973 C38.437,1.973 45.058,10.802 45.058,29.405 C45.058,29.826 45.058,30.667 45.058,31.088 L5.223,31.088 C5.223,46.538 11.634,56.42 25.614,56.42 C32.236,56.42 37.28,54.528 42.325,49.693 L44.324,51.899 Z M41.59,28.04 C41.59,14.796 37.49,5.02 25.193,5.02 C9.006,5.02 5.327,21.314 5.327,28.04 L41.59,28.04 Z"/>
      <path d="M25.508,60.791 C9.336,60.791 0.429,50.166 0.429,30.876 C0.429,12.514 10.15,0.648 25.193,0.648 C39.254,0.648 46.381,10.324 46.381,29.404 L46.381,32.41 L6.564,32.41 C6.83,43.062 10.485,55.093 25.614,55.093 C32.034,55.093 36.759,53.193 41.41,48.735 L42.393,47.792 L46.157,51.952 L45.249,52.843 C39.73,58.266 33.457,60.791 25.508,60.791 Z M25.193,3.296 C11.759,3.296 3.077,14.122 3.077,30.876 C3.077,48.714 10.834,58.143 25.508,58.143 C32.374,58.143 37.659,56.186 42.472,51.827 L42.241,51.57 C37.367,55.884 32.32,57.742 25.615,57.742 C11.613,57.742 3.9,48.275 3.9,31.087 L3.9,29.764 L43.736,29.764 L43.736,29.404 C43.735,11.593 37.843,3.296 25.193,3.296 Z M42.913,29.364 L4.004,29.364 L4.004,28.04 C4.004,21.269 7.811,3.697 25.193,3.697 C36.952,3.697 42.913,11.888 42.913,28.04 L42.913,29.364 Z M6.698,26.716 L40.252,26.716 C39.959,13.012 35.025,6.345 25.193,6.345 C10.993,6.345 7.147,19.992 6.698,26.716 Z"/>
    </g>
    <g transform="translate(114 19)">
      <path d="M4.976,3.234 L4.976,12.797 C9.915,6.596 16.118,1.972 23.58,1.972 C37.349,1.972 40.397,11.64 40.397,23.728 L40.397,58.204 L37.033,58.204 L37.033,22.993 C37.033,11.117 33.25,5.02 23.475,5.02 C14.54,5.02 8.024,13.01 4.975,16.899 L4.975,58.206 L1.717,58.206 L1.717,3.234 L4.976,3.234 Z"/>
      <path d="M41.722,59.529 L35.711,59.529 L35.711,22.993 C35.711,11.324 32.05,6.345 23.476,6.345 C15.242,6.345 8.931,14.015 6.301,17.356 L6.301,59.529 L0.394,59.529 L0.394,1.91 L6.301,1.91 L6.301,9.237 C11.649,3.534 17.448,0.649 23.581,0.649 C39.841,0.649 41.723,13.823 41.723,23.73 L41.723,59.529 L41.722,59.529 Z M38.358,56.881 L39.074,56.881 L39.074,23.729 C39.074,9.406 34.439,3.295 23.58,3.295 C17.799,3.295 12.269,6.317 7.122,12.279 C10.713,8.395 16.368,3.695 23.476,3.695 C36.816,3.695 38.358,14.709 38.358,22.991 L38.358,56.881 Z M3.042,56.881 L3.653,56.881 L3.653,4.558 L3.042,4.558 L3.042,56.881 Z"/>
    </g>
    <g transform="translate(169)">
      <path d="M4.943,1.529 L4.943,31.798 C9.46,26.017 15.872,20.973 23.967,20.973 C36.264,20.973 40.363,29.38 40.363,42.518 L40.363,77.206 L36.999,77.206 L36.999,42.518 C36.999,33.901 35.738,24.019 23.336,24.019 C15.347,24.019 9.357,30.011 4.943,35.898 L4.943,77.205 L1.684,77.205 L1.684,1.529 L4.943,1.529 Z"/>
      <path d="M41.687,78.529 L35.677,78.529 L35.677,42.518 C35.677,32.209 33.578,25.345 23.337,25.345 C17.409,25.345 11.977,28.841 6.267,36.342 L6.267,78.53 L0.361,78.53 L0.361,0.204 L6.267,0.204 L6.267,28.219 C10.382,23.846 16.322,19.648 23.968,19.648 C35.892,19.648 41.687,27.129 41.687,42.518 L41.687,78.529 Z M38.322,75.881 L39.04,75.881 L39.04,42.518 C39.04,28.533 34.391,22.296 23.967,22.296 C17.643,22.296 12.566,25.633 8.886,29.319 C12.6,25.73 17.381,22.696 23.336,22.696 C38.322,22.696 38.322,36.587 38.322,42.518 L38.322,75.881 Z M3.009,75.881 L3.619,75.881 L3.619,2.852 L3.009,2.852 L3.009,75.881 Z"/>
    </g>
    <g transform="translate(221 19)">
      <path d="M40.177,58.206 L37.024,58.206 L37.024,44.856 C32.819,54.841 26.409,59.467 17.473,59.467 C7.805,59.467 1.498,53.686 1.498,44.014 C1.498,37.184 5.387,27.409 27.354,27.409 C30.824,27.409 33.449,27.619 36.919,28.04 L36.919,20.785 C36.919,10.38 31.454,5.02 21.782,5.02 C15.895,5.02 10.642,7.543 6.332,12.484 L4.334,10.276 C8.644,5.23 14.739,1.973 21.782,1.973 C32.294,1.973 40.176,7.331 40.176,20.154 L40.176,58.206 L40.177,58.206 Z M36.919,30.876 C34.289,30.561 31.979,30.246 27.669,30.246 C10.745,30.246 4.965,35.817 4.965,44.646 C4.965,51.584 9.906,56.629 18.103,56.629 C29.033,56.629 36.919,44.226 36.919,34.555 L36.919,30.876 Z"/>
      <path d="M17.473,60.791 C6.964,60.791 0.175,54.206 0.175,44.015 C0.175,37.319 3.706,26.086 27.355,26.086 C30.489,26.086 32.947,26.261 35.597,26.554 L35.597,20.785 C35.597,11.338 30.82,6.345 21.784,6.345 C16.252,6.345 11.389,8.704 7.333,13.355 L6.353,14.478 L2.573,10.304 L3.331,9.418 C8.158,3.764 14.712,0.65 21.785,0.65 C34.316,0.65 41.504,7.759 41.504,20.156 L41.504,59.531 L35.7,59.531 L35.7,50.37 C31.387,57.37 25.385,60.791 17.473,60.791 Z M27.354,28.733 C7.077,28.733 2.822,37.042 2.822,44.014 C2.822,52.728 8.434,58.142 17.472,58.142 C24.566,58.142 29.789,55.116 33.625,48.697 C29.966,54.035 24.43,57.951 18.103,57.951 C9.454,57.951 3.641,52.603 3.641,44.645 C3.641,34.065 11.501,28.92 27.67,28.92 C31.779,28.92 34.108,29.202 36.574,29.5 L38.244,29.701 L38.244,34.554 C38.244,36.509 37.957,38.52 37.419,40.506 L38.346,38.303 L38.346,56.881 L38.853,56.881 L38.853,20.154 C38.853,5.485 28.158,3.296 21.782,3.296 C15.865,3.296 10.344,5.764 6.115,10.272 L6.341,10.521 C10.684,6.052 15.997,3.697 21.783,3.697 C32.398,3.697 38.244,9.765 38.244,20.785 L38.244,29.535 L36.76,29.355 C33.603,28.971 30.927,28.733 27.354,28.733 Z M27.67,31.568 C8.719,31.568 6.289,38.556 6.289,44.645 C6.289,51.12 10.927,55.303 18.104,55.303 C27.793,55.303 35.597,43.954 35.597,34.553 L35.597,32.048 C33.443,31.792 31.256,31.568 27.67,31.568 Z"/>
    </g>
    <g transform="translate(276 19)">
      <path d="M1.465,3.234 L20.488,3.234 C29.004,3.234 33.732,7.331 35.097,12.588 C37.62,5.442 43.927,1.973 51.179,1.973 C64.318,1.973 67.681,9.749 67.681,20.154 L67.681,58.205 L64.318,58.205 L64.318,20.154 C64.318,12.062 62.636,4.914 51.179,4.914 C41.615,4.914 36.466,12.272 36.466,21.101 L36.466,58.206 L32.997,58.206 L32.997,19.523 C32.997,10.907 28.686,6.176 19.962,6.176 L4.724,6.176 L4.724,58.205 L1.464,58.205 L1.464,3.234 L1.465,3.234 Z"/>
      <path d="M69.006,59.529 L62.994,59.529 L62.994,20.154 C62.994,11.563 61.019,6.237 51.18,6.237 C41.297,6.237 37.791,14.244 37.791,21.1 L37.791,59.528 L31.674,59.528 L31.674,19.523 C31.674,11.433 27.842,7.5 19.963,7.5 L6.049,7.5 L6.049,59.528 L0.141,59.528 L0.141,1.91 L20.489,1.91 C27.372,1.91 32.641,4.591 35.184,9.227 C38.295,3.801 44.065,0.648 51.18,0.648 C67.157,0.648 69.006,11.78 69.006,20.154 L69.006,59.529 Z M65.643,56.881 L66.358,56.881 L66.358,20.154 C66.358,8.338 61.817,3.296 51.18,3.296 C43.938,3.296 38.532,6.843 36.348,13.028 L34.909,17.107 L33.817,12.921 C32.438,7.606 27.577,4.558 20.489,4.558 L2.788,4.558 L2.788,56.881 L3.401,56.881 L3.401,4.853 L19.963,4.853 C29.223,4.853 34.32,10.063 34.32,19.524 L34.32,56.881 L35.142,56.881 L35.142,21.101 C35.142,10.628 41.587,3.591 51.179,3.591 C63.923,3.591 65.642,11.965 65.642,20.154 L65.642,56.881 L65.643,56.881 Z"/>
    </g>
  </g>
</svg>
