<?xml version="1.0" standalone="no"?>
<!DOCTYPE svg PUBLIC "-//W3C//DTD SVG 20010904//EN"
 "http://www.w3.org/TR/2001/REC-SVG-20010904/DTD/svg10.dtd">
<svg version="1.0" xmlns="http://www.w3.org/2000/svg"
 width="657.000000pt" height="431.000000pt" viewBox="0 0 657.000000 431.000000"
 preserveAspectRatio="xMidYMid meet">
<metadata>
Created by potrace 1.16, written by Peter Selinger 2001-2019
</metadata>
<g transform="translate(0.000000,431.000000) scale(0.100000,-0.100000)"
fill="#000000" stroke="none">
<path d="M0 2155 l0 -2155 3285 0 3285 0 0 2155 0 2155 -3285 0 -3285 0 0
-2155z m2393 538 c22 -15 51 -48 64 -73 33 -61 30 -169 -6 -222 -103 -150
-332 -110 -371 64 -23 104 21 201 112 247 60 31 145 24 201 -16z m1535 21
c183 -76 172 -346 -16 -400 -133 -39 -261 59 -262 199 0 150 146 257 278 201z
m422 5 c21 -6 51 -22 66 -35 l29 -23 -32 -32 -31 -32 -27 22 c-30 23 -84 28
-116 11 -23 -13 -46 -55 -49 -90 -5 -62 1 -83 34 -116 45 -45 86 -46 128 -3
36 35 30 46 -27 51 -37 3 -40 5 -40 33 l0 30 94 3 93 3 -4 -64 c-3 -50 -10
-72 -30 -99 -81 -106 -249 -93 -322 25 -24 40 -30 59 -30 110 -1 152 123 248
264 206z m436 -8 c80 -36 134 -136 120 -222 -26 -162 -190 -235 -325 -146
-105 69 -109 266 -8 339 68 50 144 60 213 29z m-2952 -51 c21 -33 41 -60 45
-60 3 0 23 27 45 60 l38 60 54 0 c30 0 54 -2 54 -4 0 -3 -32 -53 -71 -111
l-71 -106 0 -83 c0 -45 -3 -88 -7 -95 -5 -7 -24 -11 -47 -9 l-39 3 -5 96 -5
95 -67 100 c-38 56 -68 104 -68 107 0 4 24 7 53 7 l52 0 39 -60z m786 -92 c3
-88 9 -152 16 -158 6 -6 29 -10 50 -8 56 4 64 27 64 186 l0 132 45 0 45 0 0
-159 c0 -148 -1 -160 -23 -192 -12 -19 -36 -40 -52 -48 -41 -20 -133 -18 -172
3 -61 31 -68 52 -71 234 l-4 163 49 -3 48 -3 5 -147z m489 139 c39 -20 66 -64
65 -105 -2 -47 -27 -99 -54 -107 -11 -3 -20 -10 -20 -15 0 -4 27 -41 60 -80
33 -39 60 -76 60 -81 0 -5 -24 -9 -52 -9 l-53 0 -60 78 -60 77 -5 -75 -5 -75
-42 -3 -43 -3 0 205 0 206 93 0 c53 0 102 -6 116 -13z m373 -149 l3 -163 68
-3 67 -3 0 -39 0 -40 -115 0 -115 0 0 205 0 205 45 0 45 0 2 -162z m-704 -601
l3 -78 62 3 62 3 3 78 3 77 44 0 45 0 0 -205 0 -205 -45 0 -45 0 0 80 c0 75
-1 80 -23 86 -13 3 -41 4 -63 2 l-39 -3 -5 -80 -5 -80 -45 0 -45 0 -3 203 -2
203 47 -3 48 -3 3 -78z m517 43 l0 -35 -70 -5 -69 -5 -1 -35 0 -35 65 -5 65
-5 3 -37 3 -38 -59 0 c-65 0 -81 -11 -77 -50 2 -14 4 -28 4 -32 1 -5 33 -8 72
-8 l70 0 -3 -37 -3 -38 -115 0 -115 0 -3 203 -2 203 117 -3 118 -3 0 -35z
m275 25 c52 -27 76 -105 49 -158 -6 -12 -24 -33 -40 -47 l-29 -25 65 -78 c36
-43 65 -80 65 -82 0 -3 -25 -5 -55 -5 l-55 0 -58 75 c-33 41 -62 71 -66 68 -3
-3 -6 -37 -6 -75 l0 -68 -45 0 -45 0 0 205 0 205 95 0 c66 0 105 -5 125 -15z
m370 -25 l0 -40 -70 0 -70 0 0 -40 0 -40 65 0 65 0 0 -40 0 -39 -62 -3 -63 -3
0 -40 0 -40 68 -3 68 -3 -3 -37 -3 -37 -115 0 -115 0 -3 190 c-1 104 0 195 2
202 4 10 36 13 121 13 l115 0 0 -40z"/>
<path d="M2232 2627 c-67 -37 -80 -146 -25 -202 36 -35 109 -36 143 0 31 33
40 116 15 160 -27 51 -84 69 -133 42z"/>
<path d="M3802 2624 c-49 -34 -67 -116 -37 -174 19 -37 43 -50 90 -50 47 0 71
13 90 50 42 82 -9 190 -90 190 -17 0 -41 -7 -53 -16z"/>
<path d="M4635 2607 c-32 -32 -35 -40 -35 -92 0 -49 4 -60 29 -86 24 -24 38
-29 75 -29 54 0 79 20 96 77 14 47 0 110 -29 137 -11 10 -38 20 -60 23 -36 5
-44 2 -76 -30z"/>
</g>
</svg>
