<svg xmlns="http://www.w3.org/2000/svg" width="38" height="38" viewBox="0 0 38 38">
  <g fill="none">
    <circle cx="19.002" cy="19.083" r="18.167" fill="#1F3951"/>
    <path fill="#FFFFFF" d="M12.573,17.075 C12.573,16.351 12.699,15.67 12.95,15.031 C13.201,14.391 13.548,13.834 13.989,13.358 C14.431,12.882 14.94,12.47 15.516,12.123 C16.091,11.774 16.711,11.514 17.374,11.34 C18.036,11.165 18.713,11.078 19.402,11.078 C20.461,11.078 21.445,11.301 22.355,11.746 C23.266,12.191 24.006,12.84 24.575,13.689 C25.144,14.54 25.429,15.501 25.429,16.572 C25.429,17.216 25.365,17.844 25.238,18.461 C25.111,19.078 24.91,19.67 24.635,20.239 C24.36,20.808 24.026,21.308 23.631,21.74 C23.235,22.173 22.75,22.517 22.174,22.775 C21.598,23.033 20.965,23.162 20.276,23.162 C19.821,23.162 19.369,23.055 18.921,22.841 C18.472,22.626 18.15,22.332 17.956,21.957 C17.89,22.218 17.796,22.595 17.675,23.087 C17.555,23.579 17.476,23.897 17.439,24.041 C17.403,24.185 17.334,24.423 17.234,24.754 C17.133,25.086 17.046,25.323 16.972,25.467 C16.899,25.612 16.791,25.821 16.651,26.095 C16.51,26.37 16.356,26.629 16.189,26.873 C16.021,27.118 15.814,27.407 15.566,27.742 L15.425,27.793 L15.335,27.692 C15.234,26.64 15.184,26.011 15.184,25.803 C15.184,25.187 15.256,24.495 15.4,23.729 C15.545,22.962 15.767,22 16.068,20.841 C16.37,19.683 16.544,19.003 16.59,18.802 C16.376,18.366 16.269,17.801 16.269,17.105 C16.269,16.548 16.443,16.027 16.791,15.538 C17.139,15.05 17.581,14.805 18.117,14.805 C18.525,14.805 18.844,14.941 19.071,15.212 C19.299,15.483 19.413,15.826 19.413,16.241 C19.413,16.683 19.266,17.322 18.971,18.16 C18.676,18.997 18.529,19.623 18.529,20.038 C18.529,20.46 18.68,20.809 18.981,21.088 C19.283,21.365 19.648,21.505 20.076,21.505 C20.444,21.505 20.786,21.421 21.101,21.254 C21.415,21.086 21.678,20.858 21.889,20.57 C22.1,20.282 22.287,19.965 22.451,19.616 C22.615,19.268 22.742,18.898 22.833,18.506 C22.923,18.114 22.99,17.743 23.034,17.392 C23.077,17.04 23.098,16.707 23.098,16.392 C23.098,15.234 22.732,14.331 21.998,13.685 C21.265,13.039 20.309,12.716 19.131,12.716 C17.791,12.716 16.673,13.15 15.776,14.017 C14.879,14.884 14.43,15.984 14.43,17.317 C14.43,17.611 14.472,17.896 14.555,18.171 C14.639,18.445 14.73,18.663 14.826,18.823 C14.923,18.984 15.014,19.136 15.097,19.28 C15.181,19.425 15.222,19.526 15.222,19.587 C15.222,19.775 15.172,20.019 15.072,20.32 C14.972,20.621 14.847,20.772 14.701,20.772 C14.687,20.772 14.631,20.762 14.53,20.742 C14.188,20.641 13.885,20.454 13.621,20.18 C13.357,19.906 13.152,19.589 13.008,19.231 C12.864,18.873 12.756,18.511 12.682,18.146 C12.61,17.779 12.573,17.423 12.573,17.075 Z"/>
  </g>
</svg>
