<svg xmlns="http://www.w3.org/2000/svg" width="37" height="38" viewBox="0 0 37 38">
  <g fill="none">
    <circle cx="18.667" cy="19.083" r="18.167" fill="#1F3951"/>
    <path fill="#FFFFFF" d="M27.166,14.51 C26.717,15.166 26.175,15.725 25.539,16.187 C25.546,16.282 25.549,16.422 25.549,16.609 C25.549,17.48 25.422,18.349 25.167,19.216 C24.912,20.083 24.526,20.915 24.007,21.712 C23.488,22.509 22.87,23.213 22.154,23.826 C21.437,24.438 20.573,24.928 19.562,25.292 C18.551,25.657 17.469,25.84 16.318,25.84 C14.503,25.84 12.842,25.355 11.336,24.384 C11.57,24.41 11.832,24.424 12.12,24.424 C13.626,24.424 14.969,23.962 16.148,23.037 C15.445,23.024 14.815,22.808 14.259,22.39 C13.703,21.971 13.321,21.437 13.114,20.787 C13.335,20.821 13.539,20.838 13.727,20.838 C14.015,20.838 14.3,20.801 14.581,20.728 C13.831,20.574 13.21,20.201 12.718,19.608 C12.226,19.015 11.98,18.327 11.98,17.544 L11.98,17.504 C12.435,17.759 12.924,17.896 13.446,17.916 C13.004,17.621 12.653,17.236 12.391,16.761 C12.129,16.286 11.999,15.77 11.999,15.214 C11.999,14.624 12.146,14.078 12.441,13.576 C13.251,14.574 14.237,15.373 15.399,15.972 C16.561,16.572 17.805,16.905 19.131,16.972 C19.077,16.717 19.05,16.469 19.05,16.229 C19.05,15.332 19.366,14.566 19.999,13.933 C20.632,13.3 21.397,12.984 22.294,12.984 C23.231,12.984 24.022,13.326 24.664,14.008 C25.394,13.867 26.081,13.607 26.724,13.225 C26.476,13.996 26,14.591 25.297,15.013 C25.92,14.945 26.542,14.777 27.166,14.51 Z"/>
  </g>
</svg>
